<?xml version="1.0" encoding="iso-8859-1"?>
<!-- Uploaded to: SVG Repo, www.svgrepo.com, Generator: SVG Repo Mixer Tools -->
<svg fill="#000000" height="800px" width="800px" version="1.1" id="Layer_1" xmlns="http://www.w3.org/2000/svg" xmlns:xlink="http://www.w3.org/1999/xlink" 
	 viewBox="0 0 502 502" xml:space="preserve">
<g>
	<g>
		<g>
			<path d="M253.094,163.827c0.694,5.004,4.979,8.627,9.893,8.627c0.457,0,0.921-0.032,1.387-0.096
				c29.835-4.138,59.079-11.176,86.92-20.92c5.213-1.824,7.96-7.529,6.136-12.742c-1.824-5.212-7.527-7.959-12.742-6.134
				c-26.593,9.306-54.538,16.03-83.063,19.986C256.154,153.307,252.335,158.357,253.094,163.827z"/>
			<path d="M382.005,138.377c1.383,0,2.789-0.289,4.13-0.898c7.654-3.477,15.245-7.215,22.563-11.112
				c4.875-2.596,6.723-8.652,4.127-13.527c-2.596-4.875-8.65-6.721-13.526-4.126c-6.949,3.7-14.161,7.252-21.435,10.556
				c-5.028,2.284-7.253,8.212-4.969,13.24C374.57,136.197,378.204,138.377,382.005,138.377z"/>
			<path d="M467.252,4c-18.769,0-34.1,14.96-34.719,33.581c-50.031,42.993-104.507,61.926-141.758,70.234
				c-41.516,9.258-71.326,7.744-71.61,7.729c-0.098-0.006-0.195,0-0.293-0.002c-0.094-0.003-0.186-0.014-0.28-0.014H75.995
				c-5.522,0-10,4.477-10,10v28.73h-0.018C29.598,154.257,0,183.854,0,220.235s29.598,65.978,65.978,65.978h0.018v28.73
				c0,5.523,4.478,10,10,10h17.291l22.907,122.303c5.507,29.409,31.22,50.754,61.141,50.754h48.078c2.975,0,5.795-1.324,7.694-3.613
				c1.9-2.289,2.683-5.305,2.135-8.228l-30.195-161.216h13.545c0.1,0,0.196-0.012,0.295-0.015c0.089-0.002,0.178,0.004,0.267-0.001
				c0.298-0.016,30.104-1.531,71.621,7.728c37.251,8.308,91.727,27.241,141.758,70.233c0.619,18.621,15.95,33.581,34.719,33.581
				c19.16,0,34.748-15.588,34.748-34.748V38.748C502,19.588,486.412,4,467.252,4z M65.996,266.213h-0.018
				C40.625,266.213,20,245.587,20,220.235s20.625-45.978,45.978-45.978h0.018V266.213z M205.125,434H180c-5.522,0-10,4.477-10,10
				s4.478,10,10,10h28.871l4.495,24h-36.031c-20.301,0-37.747-14.482-41.483-34.436l-22.218-118.621h71.065L189.018,348H163
				c-5.522,0-10,4.477-10,10s4.478,10,10,10h29.764l4.308,23H171c-5.522,0-10,4.477-10,10s4.478,10,10,10h29.817L205.125,434z
				 M208.592,304.943H85.995V135.526h122.597V304.943z M432.505,377.046c-49.627-38.409-101.622-56.014-138.101-64.071
				c-29.384-6.492-52.973-7.922-65.812-8.133V135.628c12.839-0.211,36.428-1.642,65.812-8.132
				c36.479-8.057,88.474-25.662,138.101-64.071V377.046z M482,401.721c0,8.132-6.616,14.748-14.748,14.748
				c-8.132,0-14.748-6.616-14.748-14.748V38.748c0-8.132,6.616-14.748,14.748-14.748C475.384,24,482,30.616,482,38.748V401.721z"/>
		</g>
	</g>
</g>
</svg>